<?xml version="1.0" encoding="utf-8"?>
<!-- Generator: Adobe Illustrator 22.0.1, SVG Export Plug-In . SVG Version: 6.00 Build 0)  -->
<svg version="1.1" id="afcf7ba7-9a9d-4a96-99b1-c6a86c14369d"
	 xmlns="http://www.w3.org/2000/svg" xmlns:xlink="http://www.w3.org/1999/xlink" x="0px" y="0px" viewBox="0 0 1124.7 770.8"
	 style="enable-background:new 0 0 1124.7 770.8;" xml:space="preserve">
<style type="text/css">
	.st0{opacity:0.1;fill:#0ED00F;enable-background:new    ;}
	.st1{fill:#0ED00F;}
	.st2{fill:#46455B;}
	.st3{fill:#3F3D56;}
	.st4{opacity:0.1;enable-background:new    ;}
	.st5{fill:#323444;}
	.st6{fill:#A0616A;}
	.st7{fill:#5B5583;}
	.st8{fill:#3C354C;}
	.st9{fill:#FBB3B2;}
	.st10{fill:#8B545C;}
	.st11{fill:#2F1000;}
	.st12{fill:#A8A8A8;}
	.st13{opacity:0.2;enable-background:new    ;}
</style>
<g>
	<path class="st0" d="M287.6,136.4h71.1c4.1,0,7.4,3.3,7.4,7.4V155c0,4.1-3.3,7.4-7.4,7.4h-71.1c-4.1,0-7.4-3.3-7.4-7.4v-11.1
		C280.2,139.7,283.5,136.4,287.6,136.4z"/>
	<path class="st0" d="M377.6,162.4h71.1c4.1,0,7.4,3.3,7.4,7.4V181c0,4.1-3.3,7.4-7.4,7.4h-71.1c-4.1,0-7.4-3.3-7.4-7.4v-11.1
		C370.2,165.7,373.5,162.4,377.6,162.4z"/>
	<path class="st0" d="M467.6,188.4h71.1c4.1,0,7.4,3.3,7.4,7.4V207c0,4.1-3.3,7.4-7.4,7.4h-71.1c-4.1,0-7.4-3.3-7.4-7.4v-11.1
		C460.2,191.7,463.5,188.4,467.6,188.4z"/>
	<path class="st0" d="M287.6,97.4h71.1c4.1,0,7.4,3.3,7.4,7.4V116c0,4.1-3.3,7.4-7.4,7.4h-71.1c-4.1,0-7.4-3.3-7.4-7.4v-11.1
		C280.2,100.7,283.5,97.4,287.6,97.4z"/>
	<path class="st0" d="M377.6,123.4h71.1c4.1,0,7.4,3.3,7.4,7.4V142c0,4.1-3.3,7.4-7.4,7.4h-71.1c-4.1,0-7.4-3.3-7.4-7.4v-11.1
		C370.2,126.7,373.5,123.4,377.6,123.4z"/>
	<path class="st0" d="M467.6,149.4h71.1c4.1,0,7.4,3.3,7.4,7.4V168c0,4.1-3.3,7.4-7.4,7.4h-71.1c-4.1,0-7.4-3.3-7.4-7.4v-11.1
		C460.2,152.7,463.5,149.4,467.6,149.4z"/>
	<path class="st0" d="M567.6,136.4h71.1c4.1,0,7.4,3.3,7.4,7.4V155c0,4.1-3.3,7.4-7.4,7.4h-71.1c-4.1,0-7.4-3.3-7.4-7.4v-11.1
		C560.2,139.7,563.5,136.4,567.6,136.4z"/>
	<path class="st0" d="M657.6,162.4h71.1c4.1,0,7.4,3.3,7.4,7.4V181c0,4.1-3.3,7.4-7.4,7.4h-71.1c-4.1,0-7.4-3.3-7.4-7.4v-11.1
		C650.2,165.7,653.5,162.4,657.6,162.4z"/>
	<path class="st0" d="M747.6,188.4h71.1c4.1,0,7.4,3.3,7.4,7.4V207c0,4.1-3.3,7.4-7.4,7.4h-71.1c-4.1,0-7.4-3.3-7.4-7.4v-11.1
		C740.2,191.7,743.5,188.4,747.6,188.4z"/>
	<path class="st0" d="M567.6,97.4h71.1c4.1,0,7.4,3.3,7.4,7.4V116c0,4.1-3.3,7.4-7.4,7.4h-71.1c-4.1,0-7.4-3.3-7.4-7.4v-11.1
		C560.2,100.7,563.5,97.4,567.6,97.4z"/>
	<path class="st0" d="M657.6,123.4h71.1c4.1,0,7.4,3.3,7.4,7.4V142c0,4.1-3.3,7.4-7.4,7.4h-71.1c-4.1,0-7.4-3.3-7.4-7.4v-11.1
		C650.2,126.7,653.5,123.4,657.6,123.4z"/>
	<path class="st0" d="M747.6,149.4h71.1c4.1,0,7.4,3.3,7.4,7.4V168c0,4.1-3.3,7.4-7.4,7.4h-71.1c-4.1,0-7.4-3.3-7.4-7.4v-11.1
		C740.2,152.7,743.5,149.4,747.6,149.4z"/>
	<path class="st0" d="M287.6,45.4h71.1c4.1,0,7.4,3.3,7.4,7.4V64c0,4.1-3.3,7.4-7.4,7.4h-71.1c-4.1,0-7.4-3.3-7.4-7.4V52.8
		C280.2,48.7,283.5,45.4,287.6,45.4z"/>
	<path class="st0" d="M377.6,71.4h71.1c4.1,0,7.4,3.3,7.4,7.4V90c0,4.1-3.3,7.4-7.4,7.4h-71.1c-4.1,0-7.4-3.3-7.4-7.4V78.8
		C370.2,74.7,373.5,71.4,377.6,71.4z"/>
	<path class="st0" d="M467.6,97.4h71.1c4.1,0,7.4,3.3,7.4,7.4V116c0,4.1-3.3,7.4-7.4,7.4h-71.1c-4.1,0-7.4-3.3-7.4-7.4v-11.1
		C460.2,100.7,463.5,97.4,467.6,97.4z"/>
	<path class="st0" d="M287.6,6.4h71.1c4.1,0,7.4,3.3,7.4,7.4V25c0,4.1-3.3,7.4-7.4,7.4h-71.1c-4.1,0-7.4-3.3-7.4-7.4V13.8
		C280.2,9.7,283.5,6.4,287.6,6.4z"/>
	<path class="st0" d="M377.6,32.4h71.1c4.1,0,7.4,3.3,7.4,7.4V51c0,4.1-3.3,7.4-7.4,7.4h-71.1c-4.1,0-7.4-3.3-7.4-7.4V39.8
		C370.2,35.7,373.5,32.4,377.6,32.4z"/>
	<path class="st0" d="M467.6,58.4h71.1c4.1,0,7.4,3.3,7.4,7.4V77c0,4.1-3.3,7.4-7.4,7.4h-71.1c-4.1,0-7.4-3.3-7.4-7.4V65.8
		C460.2,61.7,463.5,58.4,467.6,58.4z"/>
	<path class="st0" d="M567.6,45.4h71.1c4.1,0,7.4,3.3,7.4,7.4V64c0,4.1-3.3,7.4-7.4,7.4h-71.1c-4.1,0-7.4-3.3-7.4-7.4V52.8
		C560.2,48.7,563.5,45.4,567.6,45.4z"/>
	<path class="st0" d="M657.6,71.4h71.1c4.1,0,7.4,3.3,7.4,7.4V90c0,4.1-3.3,7.4-7.4,7.4h-71.1c-4.1,0-7.4-3.3-7.4-7.4V78.8
		C650.2,74.7,653.5,71.4,657.6,71.4z"/>
	<path class="st0" d="M747.6,97.4h71.1c4.1,0,7.4,3.3,7.4,7.4V116c0,4.1-3.3,7.4-7.4,7.4h-71.1c-4.1,0-7.4-3.3-7.4-7.4v-11.1
		C740.2,100.7,743.5,97.4,747.6,97.4z"/>
	<path class="st0" d="M567.6,6.4h71.1c4.1,0,7.4,3.3,7.4,7.4V25c0,4.1-3.3,7.4-7.4,7.4h-71.1c-4.1,0-7.4-3.3-7.4-7.4V13.8
		C560.2,9.7,563.5,6.4,567.6,6.4z"/>
	<path class="st0" d="M657.6,32.4h71.1c4.1,0,7.4,3.3,7.4,7.4V51c0,4.1-3.3,7.4-7.4,7.4h-71.1c-4.1,0-7.4-3.3-7.4-7.4V39.8
		C650.2,35.7,653.5,32.4,657.6,32.4z"/>
	<path class="st0" d="M747.6,58.4h71.1c4.1,0,7.4,3.3,7.4,7.4V77c0,4.1-3.3,7.4-7.4,7.4h-71.1c-4.1,0-7.4-3.3-7.4-7.4V65.8
		C740.2,61.7,743.5,58.4,747.6,58.4z"/>
	<path class="st0" d="M287.6,599.4h71.1c4.1,0,7.4,3.3,7.4,7.4V618c0,4.1-3.3,7.4-7.4,7.4h-71.1c-4.1,0-7.4-3.3-7.4-7.4v-11.1
		C280.2,602.7,283.5,599.4,287.6,599.4z"/>
	<path class="st0" d="M377.6,625.4h71.1c4.1,0,7.4,3.3,7.4,7.4V644c0,4.1-3.3,7.4-7.4,7.4h-71.1c-4.1,0-7.4-3.3-7.4-7.4v-11.1
		C370.2,628.7,373.5,625.4,377.6,625.4z"/>
	<path class="st0" d="M467.6,651.4h71.1c4.1,0,7.4,3.3,7.4,7.4V670c0,4.1-3.3,7.4-7.4,7.4h-71.1c-4.1,0-7.4-3.3-7.4-7.4v-11.1
		C460.2,654.7,463.5,651.4,467.6,651.4z"/>
	<path class="st0" d="M287.6,560.4h71.1c4.1,0,7.4,3.3,7.4,7.4V579c0,4.1-3.3,7.4-7.4,7.4h-71.1c-4.1,0-7.4-3.3-7.4-7.4v-11.1
		C280.2,563.7,283.5,560.4,287.6,560.4z"/>
	<path class="st0" d="M377.6,586.4h71.1c4.1,0,7.4,3.3,7.4,7.4V605c0,4.1-3.3,7.4-7.4,7.4h-71.1c-4.1,0-7.4-3.3-7.4-7.4v-11.1
		C370.2,589.7,373.5,586.4,377.6,586.4z"/>
	<path class="st0" d="M467.6,612.4h71.1c4.1,0,7.4,3.3,7.4,7.4V631c0,4.1-3.3,7.4-7.4,7.4h-71.1c-4.1,0-7.4-3.3-7.4-7.4v-11.1
		C460.2,615.7,463.5,612.4,467.6,612.4z"/>
	<path class="st0" d="M567.6,599.4h71.1c4.1,0,7.4,3.3,7.4,7.4V618c0,4.1-3.3,7.4-7.4,7.4h-71.1c-4.1,0-7.4-3.3-7.4-7.4v-11.1
		C560.2,602.7,563.5,599.4,567.6,599.4z"/>
	<path class="st0" d="M657.6,625.4h71.1c4.1,0,7.4,3.3,7.4,7.4V644c0,4.1-3.3,7.4-7.4,7.4h-71.1c-4.1,0-7.4-3.3-7.4-7.4v-11.1
		C650.2,628.7,653.5,625.4,657.6,625.4z"/>
	<path class="st0" d="M747.6,651.4h71.1c4.1,0,7.4,3.3,7.4,7.4V670c0,4.1-3.3,7.4-7.4,7.4h-71.1c-4.1,0-7.4-3.3-7.4-7.4v-11.1
		C740.2,654.7,743.5,651.4,747.6,651.4z"/>
	<path class="st0" d="M567.6,560.4h71.1c4.1,0,7.4,3.3,7.4,7.4V579c0,4.1-3.3,7.4-7.4,7.4h-71.1c-4.1,0-7.4-3.3-7.4-7.4v-11.1
		C560.2,563.7,563.5,560.4,567.6,560.4z"/>
	<path class="st0" d="M657.6,586.4h71.1c4.1,0,7.4,3.3,7.4,7.4V605c0,4.1-3.3,7.4-7.4,7.4h-71.1c-4.1,0-7.4-3.3-7.4-7.4v-11.1
		C650.2,589.7,653.5,586.4,657.6,586.4z"/>
	<path class="st0" d="M747.6,612.4h71.1c4.1,0,7.4,3.3,7.4,7.4V631c0,4.1-3.3,7.4-7.4,7.4h-71.1c-4.1,0-7.4-3.3-7.4-7.4v-11.1
		C740.2,615.7,743.5,612.4,747.6,612.4z"/>
	<path class="st0" d="M287.6,508.4h71.1c4.1,0,7.4,3.3,7.4,7.4V527c0,4.1-3.3,7.4-7.4,7.4h-71.1c-4.1,0-7.4-3.3-7.4-7.4v-11.1
		C280.2,511.7,283.5,508.4,287.6,508.4z"/>
	<path class="st0" d="M377.6,534.4h71.1c4.1,0,7.4,3.3,7.4,7.4V553c0,4.1-3.3,7.4-7.4,7.4h-71.1c-4.1,0-7.4-3.3-7.4-7.4v-11.1
		C370.2,537.7,373.5,534.4,377.6,534.4z"/>
	<path class="st0" d="M467.6,560.4h71.1c4.1,0,7.4,3.3,7.4,7.4V579c0,4.1-3.3,7.4-7.4,7.4h-71.1c-4.1,0-7.4-3.3-7.4-7.4v-11.1
		C460.2,563.7,463.5,560.4,467.6,560.4z"/>
	<path class="st0" d="M287.6,469.4h71.1c4.1,0,7.4,3.3,7.4,7.4V488c0,4.1-3.3,7.4-7.4,7.4h-71.1c-4.1,0-7.4-3.3-7.4-7.4v-11.1
		C280.2,472.7,283.5,469.4,287.6,469.4z"/>
	<path class="st0" d="M377.6,495.4h71.1c4.1,0,7.4,3.3,7.4,7.4V514c0,4.1-3.3,7.4-7.4,7.4h-71.1c-4.1,0-7.4-3.3-7.4-7.4v-11.1
		C370.2,498.7,373.5,495.4,377.6,495.4z"/>
	<path class="st0" d="M467.6,521.4h71.1c4.1,0,7.4,3.3,7.4,7.4V540c0,4.1-3.3,7.4-7.4,7.4h-71.1c-4.1,0-7.4-3.3-7.4-7.4v-11.1
		C460.2,524.7,463.5,521.4,467.6,521.4z"/>
	<path class="st0" d="M567.6,508.4h71.1c4.1,0,7.4,3.3,7.4,7.4V527c0,4.1-3.3,7.4-7.4,7.4h-71.1c-4.1,0-7.4-3.3-7.4-7.4v-11.1
		C560.2,511.7,563.5,508.4,567.6,508.4z"/>
	<path class="st0" d="M657.6,534.4h71.1c4.1,0,7.4,3.3,7.4,7.4V553c0,4.1-3.3,7.4-7.4,7.4h-71.1c-4.1,0-7.4-3.3-7.4-7.4v-11.1
		C650.2,537.7,653.5,534.4,657.6,534.4z"/>
	<path class="st0" d="M747.6,560.4h71.1c4.1,0,7.4,3.3,7.4,7.4V579c0,4.1-3.3,7.4-7.4,7.4h-71.1c-4.1,0-7.4-3.3-7.4-7.4v-11.1
		C740.2,563.7,743.5,560.4,747.6,560.4z"/>
	<path class="st0" d="M567.6,469.4h71.1c4.1,0,7.4,3.3,7.4,7.4V488c0,4.1-3.3,7.4-7.4,7.4h-71.1c-4.1,0-7.4-3.3-7.4-7.4v-11.1
		C560.2,472.7,563.5,469.4,567.6,469.4z"/>
	<path class="st0" d="M657.6,495.4h71.1c4.1,0,7.4,3.3,7.4,7.4V514c0,4.1-3.3,7.4-7.4,7.4h-71.1c-4.1,0-7.4-3.3-7.4-7.4v-11.1
		C650.2,498.7,653.5,495.4,657.6,495.4z"/>
	<path class="st0" d="M747.6,521.4h71.1c4.1,0,7.4,3.3,7.4,7.4V540c0,4.1-3.3,7.4-7.4,7.4h-71.1c-4.1,0-7.4-3.3-7.4-7.4v-11.1
		C740.2,524.7,743.5,521.4,747.6,521.4z"/>
	<ellipse class="st0" cx="568.7" cy="728.4" rx="438.5" ry="36"/>
	<path class="st1" d="M171,193.2c41.4,17.9,65.1,55,65.1,55s-43.3,8-84.6-9.9s-65.1-55-65.1-55S129.6,175.3,171,193.2z"/>
	<path class="st1" d="M297.9,124.4c12.8-21,34.6-31,34.6-31s1,23.9-11.8,44.9s-34.6,30.9-34.6,30.9S285.1,145.3,297.9,124.4z"/>
	<path class="st2" d="M203.8,146.9c9.1,32.7,34.4,54.2,34.4,54.2s10.4-31.5,1.2-64.1s-34.4-54.2-34.4-54.2S194.7,114.2,203.8,146.9z
		"/>
	<path class="st3" d="M212.4,145.4H927c4,0,7.2,3.2,7.2,7.2v350.6c0,4-3.2,7.2-7.2,7.2H212.4c-4,0-7.2-3.2-7.2-7.2V152.6
		C205.2,148.6,208.4,145.4,212.4,145.4z"/>
	<path class="st4" d="M205.2,488.4h729l0,0v14.8c0,4-3.2,7.2-7.2,7.2l0,0H212.4c-4,0-7.2-3.2-7.2-7.2V488.4L205.2,488.4z"/>
	<path class="st1" d="M278.7,461.4h49c1.4,0,2.5,1.1,2.5,2.5v22c0,1.4-1.1,2.5-2.5,2.5h-49c-1.4,0-2.5-1.1-2.5-2.5v-22
		C276.2,462.5,277.3,461.4,278.7,461.4z"/>
	<path class="st1" d="M347.2,484.4h33c1.1,0,2,0.9,2,2l0,0c0,1.1-0.9,2-2,2h-33c-1.1,0-2-0.9-2-2l0,0
		C345.2,485.3,346.1,484.4,347.2,484.4z"/>
	<path class="st1" d="M312.3,216.8c26.4,4.9,53.3,0,79.6-3.3l79.9-10c3.2-0.4,7.9-2.3,9.8,1.6c1.1,2.2,0.3,7,0.4,9.5
		c0.2,7,0.2,14,0,21c-0.4,13.4-1.3,26.7-2.6,40c-2.4,26.1-5.9,52-7.6,78.2c-0.9,13.3-1.3,26.7-0.9,40c0.1,3.2,0.2,6.4,0.4,9.5
		c0.2,3.5,1.8,8.8-2.1,11.2c-2.2,1.4-6.6,1.3-9.1,1.7c-4,0.6-8,1.1-12.1,1.5c-26.9,2.7-54.1,1.6-81.1,1.4l-81.5-0.4l-19.9-0.1
		c-1.8,0-8.3,1.1-9.4-1.1c-0.5-0.9,0.8-5.2,1-6.3c0.3-1.9,0.6-3.8,1-5.6c2.3-13.1,5.1-26.2,7.8-39.3c5.9-28,12-56.1,14.4-84.7
		c1.2-14.4,0.4-28.8,1.9-43.1c0.7-6.6,1.5-21.5,10.4-22.1c7.5-0.5,15.2,0,22.7,0c0.8,0,1.5-0.7,1.5-1.5s-0.7-1.5-1.5-1.5
		c-7.1,0-14.2-0.2-21.3,0c-4.7,0.1-8,1.2-10.3,5.5c-5.8,11.1-5.2,26-5.3,38.2c-0.4,29.1-4.9,57.6-10.7,86.1c-2.9,14.3-6.1,28.6-9,43
		c-1.4,6.9-2.7,13.7-3.9,20.6c-0.6,3.3-3.4,10.5-0.9,13.5c2.5,3,10.2,1.4,13.6,1.4l23.9,0.1l45.7,0.3c29.5,0.2,59.2,1,88.7,0.1
		c14.1-0.4,29-1,42.7-4.4c4.1-1,6.1-2.9,6.2-7.2c0.2-6.8-0.9-13.7-1-20.5c-1-58.1,12.7-115.4,11.3-173.5c-0.1-4,1.4-13.9-2.9-16.3
		c-1.9-1.1-4.5-0.5-6.5-0.3c-3.9,0.5-7.8,1-11.7,1.5l-50.6,6.3c-16.2,2-32.4,4.2-48.6,6c-17.2,2-34.5,3.2-51.6,0
		c-1.9-0.4-2.7,2.5-0.8,2.9L312.3,216.8z"/>
	<path class="st1" d="M280.5,252.1l199.8-9.8c1.9-0.1,1.9-3.1,0-3l-199.8,9.8C278.6,249.2,278.6,252.2,280.5,252.1z"/>
	<path class="st1" d="M342.1,227.4c-1.9,2-1.8,5.2,0.2,7.1c0.5,0.4,1,0.8,1.6,1c2.7,1.2,5.9,0.2,8.5-0.5c4-1,8-1.9,12.1-2.6
		c8.9-1.6,18-2.4,27.1-2.5c4.1,0,8.3,0.1,12.4,0.3c3,0.1,6.2,0.4,8.8-1.5c2.9-2.1,3.8-6.3,1-8.8c-4-3.6-12.6-1.5-17.2-1.1
		c-16.8,1.4-33.4,3.9-49.9,7.4c-1.9,0.4-1.1,3.3,0.8,2.9c10.8-2.3,21.8-4.2,32.8-5.6c5.4-0.7,10.8-1.2,16.3-1.7
		c2.6-0.2,5.1-0.4,7.7-0.5c1-0.1,2.1-0.2,3.1-0.1c3.2,0.1,3.5-0.5,1.6,3.3c-1.7,3.4-1.1,3-4.1,2.9c-1.2,0-2.5-0.1-3.7-0.2
		c-2.5-0.1-5.1-0.2-7.6-0.2c-5.4,0-10.8,0.3-16.2,0.8c-4.6,0.4-9.1,1.1-13.6,1.9c-2.8,0.5-5.6,1.1-8.4,1.7c-1.2,0.3-2.5,0.6-3.7,0.9
		c-0.6,0.2-1.2,0.3-1.8,0.5c-2.2,0.8-4.1-0.2-5.6-3C345.5,228.2,343.4,226,342.1,227.4L342.1,227.4z"/>
	<path class="st1" d="M378.3,270.1c-14.5-0.6-30.1,3.4-39.6,15c-7.5,9.1-11.7,24.7-3.8,35c8.5,11,27.1,9.1,38.3,4.4
		c11.9-5,24.9-15.3,28.5-28.2c4.5-16.1-10-28.3-25-28.5c-1.9,0-1.9,3,0,3c8.6,0.1,17,3.8,21,11.8c4.2,8.4,0.6,17.3-5,24
		c-8.9,10.7-22.9,18.8-37.2,18.6c-8.5-0.1-18-3.1-20.6-12.1c-2.2-7.3-0.5-15.3,3.3-21.8c8.2-14,25-18.7,40.3-18.1
		C380.3,273.2,380.3,270.2,378.3,270.1L378.3,270.1z"/>
	<path class="st1" d="M363.9,292.3c-2-0.7-4.3,0.3-5,2.3c-0.2,0.5-0.3,1.1-0.2,1.7c0.3,3.9,4.6,5,7.8,4.8c2.8-0.2,6-1.3,5.1-4.8
		c-0.4-1.2-1.3-2.3-2.4-2.8c-0.9-0.4-1.9-0.5-2.8-0.4c-0.4,0-3.8,1.2-2.3-0.3l-2.4-0.3c0.5,0.5,0.8,1.3,0.7,2c0,0.8,0.7,1.5,1.5,1.5
		c0.3,0,0.5-0.1,0.7-0.2c1-0.4,2.2,0.1,2.6,1.1c0.2,0.4,0.2,0.8,0.1,1.3c-0.2,0.8,0.3,1.6,1.1,1.8c0.6,0.1,1.3-0.1,1.6-0.7
		c1-1.8,2.2-5.4,0.7-7.3c-1-1.3-2.9-0.9-4.1-0.1c-0.7,0.5-1.4,1.1-2.1,1.8c-1.2,1.1-2,1.6-1.5-0.5c0.8-3.7,4.3-6.7,7.6-8.2l-2.2-1.7
		c-1.2,4.3-3.2,8.4-6,11.9l2.6,1.1c-0.1-2.8,1.5-5.4,4.1-6.5h-1.5l0.8,1.3c-0.3,1.9,2.6,2.7,2.9,0.8c0.4-2.5-1.2-5.7-4.1-4.5
		c-3.5,1.4-5.2,5.4-5.2,8.9c0,1.2,1.7,2.1,2.6,1.1c3.2-3.9,5.5-8.4,6.8-13.2c0.2-0.8-0.3-1.6-1.1-1.8c-0.4-0.1-0.8,0-1.1,0.1
		c-3,1.4-5.5,3.6-7.3,6.3c-1.2,2-2.8,5.1-1.5,7.4c0.8,1.5,2.8,2.1,4.3,1.2c0,0,0,0,0,0c0.9-0.5,1.8-1.2,2.5-2c0.4-0.3,0.8-0.9,1.3-1
		c0.4-0.3,0.4-0.1-0.1,0.5c0,1-0.3,2-0.9,2.9l2.7,1.1c0.7-2.7-0.9-5.4-3.6-6.1c-1.2-0.3-2.5-0.2-3.6,0.4l2.3,1.3
		c0-1.3-0.4-2.5-1.1-3.5c-0.4-0.7-1.4-0.9-2.1-0.5c-0.1,0.1-0.2,0.1-0.3,0.2c-1.5,1.6-1.8,4.3,0.1,5.8c1.4,1.1,2.1,0,3.7-0.3
		c5.3-0.7,2.2,1.7,0.3,1.8c-0.8,0.1-1.7,0-2.5-0.2c-2.1-0.7-2.2-1.6-0.4-2.7C364.9,295.9,365.7,293,363.9,292.3L363.9,292.3z"/>
	<path class="st1" d="M361.5,297.8c1.2,4-3.9,5.3-6.3,6.7c-1.7,0.9-3.2,2.2-4.3,3.8c-2.5,3.4-3.5,7.7-4.3,11.7
		c-0.4,1.9,2.5,2.7,2.9,0.8c0.5-3,1.3-5.9,2.5-8.6c1.8-3.6,4.4-4.8,7.7-6.6s5.8-4.7,4.6-8.6C363.8,295.1,360.9,295.9,361.5,297.8
		L361.5,297.8z"/>
	<path class="st1" d="M366.5,295.8c-1.5,0.2-2.6,1.5-2.5,3c0,1.2,0.8,2,1.3,2.9c1.3,1.9,2.3,4.1,2.9,6.3c0.5,2.1,1,6-0.2,8
		c-2.1,3.7-5.8,3-9,3c-3,0-5.3,1-5.2-3.2c0.1-2.4,1.7-4.7,3-6.6l-2.7-0.4c0.6,3.1,0.9,6.2,0.9,9.3c0,1.4,2.1,2.2,2.8,0.8
		c1.6-3.4,2.9-6.9,3.8-10.5l-3-0.4l0.5,7.6c0,0.8,0.7,1.5,1.5,1.5c0.5,0,1-0.3,1.2-0.7c0.4-0.4,0.6-0.8,0.8-1.4
		c0.1-0.5-0.8-3.6-1.2-2.5l2.9,0.4l0.2-7.2l-3,0.4c0.6,2,0.8,4.2,0.6,6.3c-0.2,1.7,2.6,2,3,0.4l1.9-9.7l-2.7,0.4
		c0.7,1.3,0.8,2.9,0.5,4.3c-0.2,1.9,2.8,1.9,3,0c0.3-2-0.1-4-0.9-5.8c-0.4-0.7-1.4-0.9-2.1-0.5c-0.3,0.2-0.6,0.5-0.7,0.9l-1.9,9.7
		l3,0.4c0.3-2.4,0.1-4.8-0.7-7.1c-0.2-0.8-1.1-1.3-1.9-1c-0.6,0.2-1.1,0.8-1.1,1.4l-0.2,7.2c0,1.8,2.4,2,3,0.4l0.2-0.5
		c0.1-0.5,0-1.1-0.4-1.5c-3.1-3.4-3.7,2-4.8,3.5l2.8,0.8l-0.5-7.6c-0.1-1.6-2.5-2.1-3-0.4c-0.8,3.4-2,6.7-3.5,9.8l2.8,0.8
		c0-3.4-0.4-6.7-1-10.1c-0.3-1.4-2.1-1.3-2.7-0.4c-2,2.9-5.5,9.2-2.8,12.6c2.3,3,9.7,1.8,12.8,1.6c4.9-0.3,6.7-3.4,7.3-8.1
		c0.3-2.2,0.1-4.5-0.4-6.7c-0.3-1.2-3-8.7-3.8-8.5C369.2,298.3,368.4,295.4,366.5,295.8L366.5,295.8z"/>
	<path class="st1" d="M360.7,302.5l-8.2,10.8l2.6,1.5l6-8.7l-2.7-1.2l-3,11.4c-0.2,0.8,0.3,1.6,1.1,1.8c0.6,0.1,1.3-0.1,1.6-0.7
		c1.4-2.3,2.9-4.4,4.6-6.4l-2.5-1.5c-0.7,2.6-2,5-3.8,6.9l2.5,1.5c0.2-1.4,0.5-2.7,1.1-4c0.8-1.7-1.7-3.3-2.6-1.5
		c-0.8,1.6-1.8,3.1-2.9,4.5l2.7,0.4l0.6-2.9l-2.7-0.4l0.4,2.5c0.2,0.8,1.1,1.3,1.9,1c0.2-0.1,0.5-0.2,0.6-0.4c2.5-2.6,4.6-5.7,6-9
		h-2.6c0.7,1.3,1.2,2.6,1.4,4c0.4,1.8,2.8,1.1,2.9-0.4c0.4-3.3,0.6-6.7,0.7-10.1h-3v6.3c0,1.6,2.7,2.1,3,0.4c0.2-1.5,0.7-3,1.5-4.3
		h-2.6c0.6,1,1,2.2,1,3.4c0,0.8,0.7,1.5,1.5,1.5s1.5-0.7,1.5-1.5l0.4-2h-2.9c0.3,1.8,1.4,11.7-2.5,10.6c-0.7-0.2-0.9-0.1-0.6,0.1
		l0.9-1.9l2.1-4.4l-2.8-0.8c0.2,2.1,0.4,5-0.9,6.8c-1,1.4-4.1,2-5.6,1.2c-1-0.7-1.9-1.7-2.6-2.7l-2,2c1.7,1.2,4.4,4.2,6.5,4.4
		c1.6,0.1,3-1.2,4.1-2.3c3.3-3.4,5.1-8.1,4.9-12.8c0-0.8-0.7-1.5-1.5-1.5s-1.5,0.7-1.5,1.5v3.4c0,0.8,0.7,1.5,1.5,1.5
		s1.5-0.7,1.5-1.5v-8.4c0-0.8-0.7-1.5-1.5-1.5s-1.5,0.7-1.5,1.5c0,2-0.2,4-0.5,6l3,0.4c-0.2-2.4-0.3-4.8-0.3-7.2
		c0-0.8-0.7-1.5-1.5-1.5c-0.7,0-1.2,0.4-1.4,1.1c-0.5,1.9-1,3.8-1.5,5.7l2.7-0.4l-0.2-0.8c-0.1-1.9-3.1-1.9-3,0
		c0,0.8,0.2,1.6,0.6,2.3c0.6,1.2,2.4,0.8,2.7-0.4c0.6-1.9,1.1-3.8,1.5-5.7l-3-0.4c0,2.4,0.1,4.8,0.3,7.2c0.1,1.5,2.6,2.2,2.9,0.4
		c0.4-2.3,0.6-4.5,0.6-6.8h-3v8.4h3v-3.4h-3c0.2,3.8-1.1,7.5-3.7,10.3c-0.4,0.4-0.8,0.9-1.3,1.2c-0.7,0.7-1.4,0.6-1.9-0.3
		c-1.4-0.6-2.9-2.1-4.1-3s-2.9,0.9-2.1,2c2.3,3.1,5.7,6.5,10,5c4.5-1.6,5.1-7.7,4.8-11.7c-0.1-1.3-2.1-2.2-2.8-0.8
		c-1,2.1-2,4.2-3,6.3c-0.4,0.7-1,1.8-0.9,2.6c0.3,2.3,3.1,1.9,4.7,1.8c6.5-0.5,5.5-9.7,4.7-14.4c-0.3-1.5-2.5-1.3-2.9,0
		c-0.3,0.9-0.5,1.9-0.5,2.8h3c-0.1-1.7-0.6-3.4-1.4-4.9c-0.4-0.7-1.4-0.9-2.1-0.5c-0.2,0.1-0.4,0.3-0.5,0.5c-0.9,1.5-1.5,3.2-1.8,5
		l3,0.4v-6.3c0-0.8-0.7-1.5-1.5-1.5s-1.5,0.7-1.5,1.5c0,3.4-0.2,6.8-0.7,10.1l3-0.4c-0.3-1.6-0.9-3.2-1.7-4.7
		c-0.4-0.7-1.4-0.9-2.1-0.5c-0.2,0.1-0.4,0.3-0.5,0.5c-1.3,3.1-3.2,6-5.5,8.4l2.5,0.7l-0.4-2.5c-0.2-1.3-2.1-1.4-2.7-0.4
		c-1,1.5-1.3,3.4-0.9,5.2c0.3,1.4,2,1.3,2.7,0.4c1.1-1.4,2-2.9,2.9-4.5l-2.6-1.5c-0.7,1.5-1.2,3.1-1.4,4.7c-0.2,1.3,1.4,2.7,2.5,1.5
		c2.1-2.4,3.7-5.2,4.5-8.3c0.4-1.4-1.5-2.6-2.5-1.5c-1.8,2.2-3.5,4.5-5,7l2.7,1.2l3-11.4c0.2-0.8-0.3-1.6-1.1-1.8
		c-0.6-0.1-1.3,0.1-1.6,0.7l-6,8.7c-1.1,1.6,1.5,3,2.6,1.5l8.2-10.8C364.5,302.5,361.9,301,360.7,302.5L360.7,302.5z"/>
	<path class="st1" d="M488.3,338.6c12-7.3,21.5-18.3,32.1-27.5c11.5-9.9,23.6-19.2,36-27.9c24.1-17,49.5-32.2,74.8-47.4
		c0.7-0.4,0.9-1.4,0.5-2.1c-0.4-0.7-1.3-0.9-2-0.5c-25.3,15.2-50.7,30.4-74.8,47.4c-11.4,8-22.5,16.5-33.2,25.5
		c-11.6,9.8-21.9,22-35,29.9C485.1,337,486.6,339.6,488.3,338.6L488.3,338.6z"/>
	<path class="st1" d="M670,189.2c-13,1.3-27,4.6-35,16c-6.9,9.8-6.8,26.8-0.3,36.9c7.4,11.4,22.4,11.8,34.1,8.1s23.8-10.2,23.7-24.1
		c-0.1-7.5-2.8-15.3-5.8-22.1c-2.6-5.9-7.2-11-14.1-10.4c-1.9,0.2-1.9,3.2,0,3c9.3-0.9,12.3,10.1,14.5,17.1c2,6.5,3.8,14.2,0.7,20.6
		s-10.7,9.7-17.2,12.1c-7,2.5-14.7,4.1-22,2c-14.5-4-18.5-22.4-14.3-35.4c4.8-15,21.8-19.4,35.7-20.8C671.9,192,671.9,189,670,189.2
		L670,189.2z"/>
	<path class="st1" d="M690,305.2c-13,1.3-27,4.6-35,16c-6.9,9.8-6.8,26.8-0.3,36.9c7.4,11.4,22.4,11.8,34.1,8.1s23.8-10.2,23.7-24.1
		c-0.1-7.5-2.8-15.3-5.8-22.1c-2.6-5.9-7.2-11-14.1-10.4c-1.9,0.2-1.9,3.2,0,3c9.3-0.9,12.3,10.1,14.5,17.1c2,6.5,3.8,14.2,0.7,20.6
		s-10.7,9.7-17.2,12.1c-7,2.5-14.7,4.1-22,2c-14.5-4-18.5-22.4-14.3-35.4c4.8-15,21.8-19.4,35.7-20.8C691.9,308,691.9,305,690,305.2
		L690,305.2z"/>
	<path class="st1" d="M650.3,218.4l9.5,10.8c0.6,0.6,1.6,0.6,2.1,0c0.2-0.2,0.3-0.4,0.4-0.6c2-5.3,1.6-10.7,2.1-16.2
		c0.5-5.7,2-11.3,4.3-16.6c4.6-10.7,12.4-19.6,22.4-25.6c1.7-1,0.1-3.6-1.5-2.6c-9.8,5.9-17.7,14.5-22.6,24.9
		c-2.4,5-4.1,10.4-5,15.9c-1,6.5-0.1,13.3-2.5,19.5l2.5-0.7l-9.4-10.8C651.2,214.9,649.1,217,650.3,218.4L650.3,218.4z"/>
	<path class="st1" d="M493.1,350.3c51.6-1.6,103.2-1.9,154.8-1c1.9,0,1.9-3,0-3c-51.6-0.9-103.2-0.6-154.8,1
		C491.2,347.3,491.2,350.3,493.1,350.3z"/>
	<path class="st1" d="M658.7,320.7c17.6,6.9,34.6,15.4,50.7,25.5c1.6,1,3.2-1.6,1.5-2.6c-16.3-10.1-33.5-18.8-51.3-25.8
		C657.7,317.1,656.9,320,658.7,320.7L658.7,320.7z"/>
	<path class="st1" d="M690.7,307.1c-17.9,20.8-28.2,47.1-29.4,74.5c-0.1,1.9,2.9,1.9,3,0c1.1-26.6,11.2-52.1,28.5-72.4
		C694,307.8,691.9,305.6,690.7,307.1L690.7,307.1z"/>
	<path class="st1" d="M290.7,339.4l111.8-1.5l12.9-0.2c2.3,0,4.6-0.1,6.9-0.1c3.3,0,5.4,2.7,5.4,6c-0.1,7-4.5,6.8-10.3,7l-13.9,0.6
		l-56.6,2.5c-10.1,0.5-20.3,1-30.4,1.4c-9.1,0.3-26.5-2.7-22.5-16c0.6-1.9-2.3-2.6-2.9-0.8c-2,6.5,1.5,13.2,7.2,16.6
		c8.1,4.9,18.8,3.2,27.7,2.8l69.4-3.1l16.9-0.8c4.3-0.2,10.3,0.7,14.3-1.3c4.7-2.4,5.5-11.7,2.5-15.6c-1.5-2-3.6-2.2-6-2.3
		c-6.2-0.2-12.5,0.2-18.8,0.3l-34.6,0.5l-79.1,1C288.8,336.4,288.8,339.4,290.7,339.4L290.7,339.4z"/>
	<g id="b30eccf6-7cfe-48df-9caa-415a128bd568">
		<path class="st5" d="M742.3,706.9c-2.5,1.6-5.4,2.5-8,3.9s-5.1,3.5-5.9,6.4c-0.3,0.9-0.2,1.9,0.1,2.7c0.6,1,1.6,1.8,2.8,2.2
			c10.7,4.7,22.8,4.9,33.6,0.4c1.9-0.9,3.8-1.7,5.8-2.3c2.4-0.5,4.9-0.8,7.4-0.8c2.6-0.2,5.2-0.5,7.8-1c1.3-0.1,2.5-0.7,3.5-1.5
			c0.9-1.1,1.5-2.4,1.6-3.8c1.2-7.8-0.6-15.7-5-22.3c-0.6-0.9-1.3-1.7-2.2-2.3c-1.1-0.6-2.3-0.9-3.5-0.9c-5-0.6-10.2-1.7-15.3-1.8
			c-3.6-0.1-5.4,1.6-8,4.1C751.9,695.1,748.8,702.8,742.3,706.9z"/>
		<path class="st5" d="M816,706.1c0,4.9,0.6,10.1,3.6,14c1.4,1.7,3,3.1,4.9,4.3c6.3,4,14.6,5.5,21.2,2.1c1.1-0.5,2-1.2,2.6-2.2
			c1-1.7,0.5-3.9-0.1-5.8l-9.6-33.2c-6.2,1-15.3,1.6-20.8,4.8C813.8,692.3,816,701.8,816,706.1z"/>
		<path class="st6" d="M736.7,501.7c-0.6,1.8-2.7,2.7-3.8,4.2c-1.3,1.8-1.2,4.3-0.7,6.5c0.6,3.2,2.1,6.2,4.4,8.7
			c2.3,2.4,5.7,3.6,9,3.1c3.2-0.6,6-3.5,6.1-6.7c-0.1-1.5-0.4-3-0.9-4.3l-6.8-19.7c-0.1-0.3-0.2-0.5-0.5-0.7c-0.3-0.1-0.5,0-0.8,0.1
			c-1.6,0.8-4.8,1.6-5.8,3.2S737.4,499.9,736.7,501.7z"/>
		<path class="st5" d="M733.5,500.7c2.5-0.4,4.7-1.8,7-2.8s5.3-1.3,7.2,0.3c0.6,0.5,1.1,1.1,1.8,1.1c-1-4.9-2.5-9.7-4.5-14.2
			c-0.1-0.2-0.2-0.4-0.4-0.5c-0.3-0.1-0.6-0.1-0.8,0l-6.7,1.8c-2.5,0.7-2.8,0.5-2.6,2.9C734.5,490.2,735.1,500.7,733.5,500.7z"/>
		<path class="st7" d="M732.8,358.3c-1,1.5-1,3.5-1,5.3c0,8.9,0.1,17.8,1.4,26.5c0.3,2.1,0.7,4.2,0.9,6.3c0.2,3,0.3,5.9,0.1,8.9
			l-1,38.5c-0.1,4.7-0.4,9.8-3.3,13.5c-0.9,1.2-1.3,2.8-1.2,4.3c0.8,9.7,2.4,19.2,4,28.8c5.2-2.3,11.2-2.1,16.1,0.8
			c5-15.9,7.8-32.4,8.3-49c0.2-8.2-0.1-16.4,1.1-24.5c2.1-13.6,1.3-27.6-0.3-41.3c-0.5-4.3-1.5-8.8-4.3-12.2c-2.6-2.9-6.1-5-10-5.8
			C740,357.4,736.7,358.4,732.8,358.3z"/>
		<path class="st4" d="M732.8,358.3c-1,1.5-1,3.5-1,5.3c0,8.9,0.1,17.8,1.4,26.5c0.3,2.1,0.7,4.2,0.9,6.3c0.2,3,0.3,5.9,0.1,8.9
			l-1,38.5c-0.1,4.7-0.4,9.8-3.3,13.5c-0.9,1.2-1.3,2.8-1.2,4.3c0.8,9.7,2.4,19.2,4,28.8c5.2-2.3,11.2-2.1,16.1,0.8
			c5-15.9,7.8-32.4,8.3-49c0.2-8.2-0.1-16.4,1.1-24.5c2.1-13.6,1.3-27.6-0.3-41.3c-0.5-4.3-1.5-8.8-4.3-12.2c-2.6-2.9-6.1-5-10-5.8
			C740,357.4,736.7,358.4,732.8,358.3z"/>
		<path class="st8" d="M745,470c-6.7,34.4-3,70,10.5,102.2c1.2,2.4,2,4.9,2.4,7.6c0.5,4.9-1.7,9.6-3,14.3c-3,10.8-1.3,22.3,0.7,33.3
			c0.8,4.6,1.6,9.2,2.5,13.8c0.8,4.5,1.6,9.3-0.5,13.4c1.8,7.5,2.8,14.8,4.6,22.3c0.2,0.6,0.2,1.2,0.2,1.8c-0.4,1-1,1.8-1.8,2.5
			c-2.7,2.8-3.8,6.7-2.8,10.5c4.6-3.3,10.9-2.1,16.2,0s10.4,5,16,5c-0.8-6.6-1.6-13.6,0.8-19.8c1.4-3.6,3.9-7,3.8-10.8
			c-0.1-3.5-2.2-6.5-2.7-9.9c-0.2-2.1-0.1-4.3,0.2-6.4c1.3-12.2-0.2-24.6-1.7-36.8c-0.2-2.4-0.7-4.8-1.7-7c-0.7-1.4-1.8-2.8-1.8-4.4
			c0-1.9,1.5-3.4,2.1-5.2c1-3.3-0.8-7.7,1.9-9.8c7.3-5.4,4.5-18.2,4.3-27.2c-0.1-7.8-0.5-15.6-1-23.4c4.6,12.9,6.5,26.7,5.5,40.3
			c-0.3,4.5-0.9,9.2,0.8,13.3c1.3,3.2,4,5.8,4.7,9.2c0.5,2.1,0.1,4.2,0.2,6.3s0.8,4.4,2.7,5.5c0.1,9.6,1,19.9,1.2,29.6
			c-0.1,4.9,0.3,9.9,1.2,14.7c0.4,1.5,0.7,3.1,0.7,4.7c-0.2,2-0.8,4-1.6,5.8c-3.5,10.5-1.7,22,5,30.8c2.4-4.2,7.3-6.4,12.1-6.8
			c4.8-0.3,9.5,0.9,14.2,2.1c-0.7-5.8,0.5-11.8,3.3-16.9c0.8-1.2,1.4-2.4,1.8-3.8c0.5-2.5-0.7-5.1-1.4-7.6c-1.1-4-0.7-8.3-0.5-12.5
			c0.9-14,0.3-28.1-1.8-41.9c-0.3-2.7-1-5.4-1.9-8c-0.4-0.9-0.8-1.8-1.1-2.7c-0.5-1.7-0.7-3.4-0.8-5.1l-1.2-16
			c-0.8-11.2,2.9-22.3,5.4-33.2c1.2-4.9,2.4-9.8,3.2-14.8c1-6.8,1.2-13.7,2.8-20.4c1.4-6,3.9-11.8,4.4-18c0.8-9.5-3.2-18.7-7-27.5
			c-1.6-3.6-7.7-3.2-11.5-3.9c-27.6-4.5-56.7-4.6-82.7,5.7C749.4,466.2,747,467.9,745,470z"/>
		<path class="st9" d="M764.9,292.5l3.1,11.9c0.8,2.7,1.3,5.6,1.4,8.4c0,1-0.2,2.1-0.7,3c-0.5,0.8-1.1,1.4-1.9,1.9
			c-2.1,1.6-3.5,5.3-5.9,6.4c1.2,2.1,2.9,0.8,5.2,1.8c3.9,1.9,7.5,4.6,11.7,5.6c4,0.9,8.2,0,12.2-1c5.6-1.5,11.2-3.6,15.8-7.3
			s7.1-7,7.1-12.8c-5,0.6-9.5-4.5-11.7-9c-0.8-1.7-1.3-3.5-1.7-5.4l-2.7-11.8c-2.9,0.6-5.3,2.7-8.1,3.8s-6.1,1.2-9.2,1.3
			c-5.5,0.3-11,1-16.4,2.1c-0.7,0.1-1.7,0.6-1.5,1.3"/>
		<path class="st10" d="M764.9,292.5l3.1,11.9c0.8,2.7,1.3,5.6,1.4,8.4c0,1-0.2,2.1-0.7,3c-0.5,0.8-1.1,1.4-1.9,1.9
			c-2.1,1.6-3.5,5.3-5.9,6.4c1.2,2.1,2.9,0.8,5.2,1.8c3.9,1.9,7.5,4.6,11.7,5.6c4,0.9,8.2,0,12.2-1c5.6-1.5,11.2-3.6,15.8-7.3
			s7.1-7,7.1-12.8c-5,0.6-9.5-4.5-11.7-9c-0.8-1.7-1.3-3.5-1.7-5.4l-2.7-11.8c-2.9,0.6-5.3,2.7-8.1,3.8s-6.1,1.2-9.2,1.3
			c-5.5,0.3-11,1-16.4,2.1c-0.7,0.1-1.7,0.6-1.5,1.3"/>
		<circle class="st6" cx="778" cy="272.6" r="26.5"/>
		<path class="st5" d="M785.3,316.2c1.4-3.1,3.5-5.8,6-8c3.7-3.3,8.8-5.9,9.7-10.8l8.1,9.4c0.4,0.4,0.8,1,1,1.5
			c0.2,1.1-0.1,2.2-0.8,3.1c-2,3.2-5.2,5.5-8.1,7.8c-6.8,5.4-13.4,11.2-19.6,17.3c-0.3,0.3-0.6,0.5-1,0.6c-0.4,0-0.8-0.1-1.1-0.3
			c-5.4-2.8-10.1-6.7-14-11.4c-0.3-0.4-0.7-0.8-1.1-0.7c-0.3,0.1-0.5,0.2-0.8,0.4c-2.7,2.2-5.6,4.8-9.1,4.5c4.5-3.2,7-8.6,7.9-14
			c0.2-1.9,0.6-3.7,1.1-5.5c0.6-1.8,2.1-3.2,3.9-3.7c-2.2,3.3-0.7,8,2.2,10.7c2.8,2.4,6.3,4.1,9.9,4.8
			C783.1,322.7,784.1,318.8,785.3,316.2z"/>
		<path class="st5" d="M750.8,472.7c3.8,0.9,7.3,2.5,11,3.7c6.7,2.1,13.7,2.8,20.7,2.2c2.1,0,4.2-0.7,6-1.9c0.5-0.4,0.9-0.8,1.4-1.2
			c0.8-0.5,1.7-0.9,2.7-1.1c9.2-2.9,16.8-9.1,24.3-15.1c0.2-0.2,0.5-0.5,0.5-0.8c0-0.2-0.1-0.4-0.3-0.6l-3.9-4.5
			c-10.3,1.8-20.8,1.1-31.2,0.8c-2.1-0.1-4.3,0-6.4,0.2c-2.1,0.2-4.1,0.8-6.1,1.2c-7.7,1.7-15.6,2.3-23.4,3.4
			c-0.5,0-1.1,0.2-1.5,0.5c-0.3,0.3-0.6,0.6-0.8,0.9l-2.7,3.8c-1.1,1.3-1.8,2.8-2.3,4.4c-0.6,3,0.7,4,3.3,3.6
			C744.8,471.8,747.9,472,750.8,472.7z"/>
		<path class="st7" d="M781.5,332c-3.1-3.1-6.5-5.8-10.3-8c-1.5-1-3.2-1.6-5-2c-1.8-0.4-3.7,0.1-5.1,1.3c-0.9,0.8-1.5,1.9-2.3,2.7
			c-1.1,0.9-2.3,1.6-3.7,2.1c-4.6,1.9-8.9,4.4-12.9,7.3c-2.2,1.5-4.1,3.3-5.8,5.4c-4.5,5.8-5.2,13.7-5.1,21c0.1,5.1,5,8.9,8.4,12.8
			c3.2,3.8,6,7.8,8.6,12c1.8,2.9,3.7,6,3.5,9.4c-0.2,2.8-1.8,5.5-1.6,8.3c0.1,1,0.4,1.9,0.5,2.9c0.2,2-0.6,4-0.8,6
			c-0.3,2.8,0.7,5.6,0.7,8.5c0,2-0.3,3.9-0.7,5.8c-1.9,9.1-4.3,18.3-3.8,27.7l-5.5,1c1.8,1.8,1.9,4.8,0.1,6.6
			c-0.3,0.3-0.7,0.6-1.1,0.9c8.7,2.9,18,1.4,27.2,1.4c7.6,0,15.2,1,22.7,0.9s15.4-1.5,21.7-5.8c1.7-1.2,3.3-2.5,5-3.5
			c2.4-1.2,5-2.1,7.7-2.5c4.9-0.9,10-1.4,15-1.3c2.5,0,5.1,0.1,7.1-1.4c2.2-1.6,2.7-4.6,3-7.3c0.3-2.8,0.5-5.7,0.5-8.5
			c0.1-2.2,0-4.4-0.3-6.6c-0.3-1.6-0.7-3.2-1.2-4.8l-3.8-13.3c-1.6-5.5,0.6-11.5,1.1-17.2c0.1-1.3,0.1-2.9-0.9-3.8
			c-0.4-0.3-0.9-0.5-1-1c-0.1-0.5,0-0.9,0.2-1.3c2-4,5-7.5,7.7-11.1c4.6-6.3,8.9-12.9,12.8-19.7c-1.2-14.2-7.2-27.5-16.9-37.9
			c-2-2.2-4.3-4.3-7.1-5.2c-1.8-0.6-3.7-0.9-5.6-0.9c-7.8-0.5-16-1-22.8-4.9c-0.5-0.3-1-0.6-1.6-0.7c-1.5-0.2-2.6,1.3-3.6,2.5
			c-2.5,3-6.2,4.7-9.5,6.9C790.6,320.5,785.9,326.2,781.5,332z"/>
		<path class="st7" d="M864.6,360.7c1.6,4.9,1.4,10.2,1.9,15.4c0.3,3.1,0.8,6.2,1.6,9.2c0.4,1.7,1,3.2,1.9,4.7
			c0.9,1.3,2.2,2.4,2.8,3.9c0.3,1,0.5,2.1,0.4,3.1l0.1,6.9c0.3,3.7-0.3,7.3-1.6,10.7l-4.3,13.1c-2.3,7.1-4.7,14.3-8.9,20.5
			c-0.6,1-1.5,1.9-2.6,2.4c-0.8,0.2-1.7,0.4-2.6,0.4c-3.1,0.6-5.4,3.3-5.5,6.5c-1-1.5-2.2-2.7-3.7-3.8l-8.8-7
			c-3-2.4-6.1-4.9-9.8-6.3c10-3.1,17.2-11.8,18.4-22.3c0-1.5,0.3-3,1-4.4c0.7-1.2,2.1-2.1,2.2-3.5c0.1-1.8-1.9-3.1-1.9-4.8
			c0-1.2,0.9-2.1,1.2-3.2c0.4-1.3,0.4-2.8,0-4.1l-1.2-6.7c-0.1-0.7-0.3-1.3-0.6-1.9c-0.5-0.6-1-1.1-1.5-1.6c-2.1-2.3-1.2-6,0-8.9
			c2.7-6.4,6.1-12.4,10.2-17.9c1.5-1.9,2.8-3.8,4.1-5.8c1.1-1.8,1.3-4.4,2.4-6C861.4,353,863.4,356.8,864.6,360.7z"/>
		<path class="st5" d="M825.3,440.8c-0.4,0.3-0.8,0.7-1.1,1.2c-1.2,1.5-2.7,2.6-4.5,3.2c1,0.7,1.9,1.4,2.8,2.2
			c7,5.4,13.3,11.5,19,18.2c0.6-2.3,4.4-2.1,5.3-4.2c0.2-0.6,0.3-1.3,0.2-1.9c-0.2-3.4-0.7-6.7-1.4-10c-0.3-1.7-1-3.3-2-4.7
			c-1.4-1.7-3.6-2.5-5.7-3.2C834.7,440.4,828.5,438.8,825.3,440.8z"/>
		<path class="st6" d="M812.8,448.6c-3,2.2-5.6,5-9,6.5c-2.4,1.1-5.1,1.5-7.2,3.2c1.1,2.5,4.1,3.8,6.8,3.7c2.7-0.3,5.4-1.2,7.6-2.8
			c1.8-1.1,3.9-2.4,5.8-1.6c0.3,1.5-1,3-1,4.5s1.3,2.7,2.5,3.5c6,3.9,13.7,3.5,20.9,3.1c0.4,0,0.8-0.1,1.2-0.3
			c0.3-0.4,0.5-0.8,0.4-1.3c0.1-1.6,0.1-3.2,0.1-4.7c0.4-2.6-0.7-5.2-2.9-6.7c-3.9-3.3-8.1-6.3-12.5-8.9
			C821.2,444.2,816.7,445.7,812.8,448.6z"/>
		<path class="st8" d="M787.3,261.5c-4.4,0.5-7.7,4-7.2,7.8s4.4,6.4,8.8,5.8s7.7-4,7.2-7.8S791.7,261,787.3,261.5z M788.8,274.1
			c-3.8,0.5-7.1-1.8-7.5-4.9s2.4-6.1,6.1-6.6s7.1,1.8,7.5,4.9S792.6,273.6,788.8,274.1L788.8,274.1z"/>
		<path class="st8" d="M765.7,264.1c-4.4,0.5-7.7,4-7.2,7.8s4.4,6.4,8.8,5.8s7.7-4,7.2-7.8S770.1,263.6,765.7,264.1z M767.2,276.6
			c-3.8,0.5-7.1-1.8-7.5-4.9s2.3-6.1,6.1-6.6s7.1,1.8,7.5,4.9S770.9,276.2,767.2,276.6L767.2,276.6z"/>
		<polygon class="st8" points="749.6,266 759.2,268.1 758.3,270.6 749.2,268 		"/>
		<polygon class="st8" points="803.4,259.6 794.5,263.9 796,266.1 804.2,261.3 		"/>
		<polygon class="st8" points="773.6,267.4 780.4,266.6 780,268.3 774.2,268.7 		"/>
		<path class="st11" d="M760.5,265.2c0.6-1.4,1-2.9,1-4.4c0-0.9,0.2-1.8,0.5-2.7c0.5-1.1,1.2-2,2.2-2.8c3.1-2.6,7.6-4,12-4.2
			c4.8-0.2,9.6,0.8,13.9,3c1.3,0.6,2.5,1.5,3.5,2.6c1.4,1.7,1.7,3.9,3.1,5.6c2,2.1,4.9,3,7.7,2.4c0.5-1.7-0.2-3.6,0.1-5.4
			c0.4-1.5,0.9-3,1.6-4.4c1.5-4.6-0.7-9.9-5.4-12.6c-1.6-1-3.6-1.6-4.8-3s-1.5-2.8-2.3-4.1c-2.2-3.6-8-5.2-12.4-3.6
			c-1.4,0.5-2.6,1.3-4,1.9c-2.6,1.1-5.6,1.3-8.4,1.6c-2.8,0.3-5.6,1-8.2,2.1c-2.5,1.2-4.5,3.2-5.1,5.5c-0.3,1.1-0.2,2.2-0.5,3.3
			c-1.4,5.4-10.3,8.1-10.8,13.6c-0.2,2,0.9,3.9,2.3,5.5c0.9,1.1,3.2,4.1,4.8,4.5s2.8-1.1,4.3-1.6
			C757.8,267.4,759.3,267.2,760.5,265.2z"/>
	</g>
	<path class="st2" d="M873.3,617.4c0,50.2,31.5,90.9,70.5,90.9"/>
	<path class="st1" d="M943.8,708.3c0-50.8,35.2-91.9,78.7-91.9"/>
	<path class="st1" d="M898.8,621.9c0,47.7,20.1,86.3,44.9,86.3"/>
	<path class="st2" d="M943.8,708.3c0-64.9,40.7-117.5,90.9-117.5"/>
	<ellipse class="st0" cx="940.7" cy="722.7" rx="17.5" ry="3"/>
	<path class="st12" d="M929,708.9c0,0,10-0.3,13-2.4s15.4-4.7,16.1-1.3c0.8,3.4,15,17.1,3.7,17.2c-11.3,0.1-26.2-1.8-29.2-3.6
		C929.6,717,929,708.9,929,708.9z"/>
	<path class="st13" d="M962,721.2c-11.3,0.1-26.2-1.8-29.2-3.6c-2.3-1.4-3.2-6.4-3.5-8.7H929c0,0,0.6,8.1,3.6,9.9
		c3,1.8,17.9,3.7,29.2,3.6c3.3,0,4.4-1.2,4.3-2.9C965.7,720.5,964.5,721.2,962,721.2z"/>
	<path class="st2" d="M108.8,646.7c0,40,25.1,72.3,56.1,72.3"/>
	<path class="st1" d="M164.9,719.1c0-40.4,28-73.1,62.6-73.1"/>
	<path class="st1" d="M129.1,650.4c0,38,16,68.7,35.8,68.7"/>
	<path class="st2" d="M164.9,719.1c0-51.7,32.4-93.4,72.3-93.4"/>
	<ellipse class="st0" cx="162.4" cy="730.5" rx="13.9" ry="2.4"/>
	<path class="st12" d="M153.1,719.6c0,0,7.9-0.3,10.3-2s12.2-3.8,12.8-1s11.9,13.6,3,13.7c-8.9,0.1-20.9-1.4-23.3-2.8
		S153.1,719.6,153.1,719.6z"/>
	<path class="st13" d="M179.4,729.4c-9,0.1-20.9-1.4-23.3-2.9c-1.8-1.1-2.5-5.1-2.8-6.9h-0.3c0,0,0.5,6.4,2.9,7.9
		c2.4,1.5,14.3,2.9,23.3,2.8c2.6,0,3.5-0.9,3.4-2.3C182.3,728.8,181.3,729.3,179.4,729.4z"/>
</g>
</svg>
