<?xml version="1.0" encoding="utf-8"?>
<!-- Generator: Adobe Illustrator 22.0.1, SVG Export Plug-In . SVG Version: 6.00 Build 0)  -->
<svg version="1.1" id="afcf7ba7-9a9d-4a96-99b1-c6a86c14369d"
	 xmlns="http://www.w3.org/2000/svg" xmlns:xlink="http://www.w3.org/1999/xlink" x="0px" y="0px" viewBox="0 0 1124.7 770.8"
	 style="enable-background:new 0 0 1124.7 770.8;" xml:space="preserve">
<style type="text/css">
	.st0{opacity:0.1;fill:#0ED00F;enable-background:new    ;}
	.st1{fill:none;stroke:#535461;stroke-width:3;stroke-miterlimit:10;}
	.st2{fill:#0ED00F;}
	.st3{opacity:0.1;enable-background:new    ;}
	.st4{opacity:0.3;enable-background:new    ;}
	.st5{opacity:0.5;fill:#DEE3F3;enable-background:new    ;}
	.st6{fill:#A8A8A8;}
	.st7{opacity:0.2;enable-background:new    ;}
	.st8{fill:url(#SVGID_1_);}
	.st9{fill:#A7655E;}
	.st10{fill:#B16B64;}
	.st11{fill:#535461;}
	.st12{fill:#575988;}
	.st13{fill:#E14B5A;}
	.st14{opacity:0.5;fill:#FFFFFF;enable-background:new    ;}
	.st15{fill:url(#SVGID_2_);}
	.st16{fill:#A0616A;}
	.st17{fill:#F7C4A7;}
	.st18{opacity:0.1;}
	.st19{fill:#632652;}
	.st20{fill:#FFFFFF;}
	.st21{opacity:0.1;fill:none;stroke:#000000;stroke-miterlimit:10;enable-background:new    ;}
	.st22{fill:#6A5C99;}
	.st23{fill:#FFD037;}
	.st24{fill:#D6D6E3;}
</style>
<path class="st0" d="M1060.8,437.4c-37.7,47.9-23,117.8,0.9,173.9c8,18.8,17.1,38.6,13.7,58.7c-4.1,24.6-26.1,42.6-49.1,52.1
	c-42,17.4-92.3,13.2-130.9-10.8c-33.4-20.8-57.3-54.5-91.2-74.3c-56.8-33.2-129.1-20.6-190.7,2.2c-43.6,16.2-91.3,37.2-134.7,20.3
	c-30.5-11.9-51.6-40.8-63.1-71.5c-5.5-14.8-9.6-30.8-20.2-42.6c-6.3-7-14.5-11.9-22.9-16.1c-76.9-38.1-174-17.7-248.6-60
	C73.5,440.9,41.3,387,27,330.8s-12.6-115-9-172.9c2.6-41.1,7.2-85,33.5-116.7C79.2,7.7,126.9-4.8,170,1.6s82.2,29.1,116.5,55.9
	c42.9,33.5,82.8,75.1,135.5,88.7c35.9,9.2,73.7,4.2,110.7,2.4c61.9-2.9,123.9,3.6,185.4,10.7c58.9,6.8,118.3,14.3,174.5,33.5
	c39.7,13.6,71.6,38.2,109.1,55.4c24.5,11.2,51.1,14.3,74.3,28.6c28.5,17.6,54.7,48.2,47.4,84C1116.5,394.9,1080.8,412,1060.8,437.4z
	"/>
<path class="st1" d="M735,146.9c0,0-60.5-17.9-64.5,33.1s16,135,0,162s-73.1,66-43,69.5s45,8.5,36,26.5s-56,35-46,48s15,29,5,45
	s-45,26-39,37s28,17,17,29s-42.9,39.3-30.4,39.1"/>
<path class="st2" d="M695.8,112.9h127.7c7.2,0,13,5.8,13,13v45.3c0,7.2-5.8,13-13,13H695.8c-7.2,0-13-5.8-13-13v-45.3
	C682.8,118.7,688.6,112.9,695.8,112.9z"/>
<rect x="695.1" y="173.2" class="st3" width="129.1" height="1.3"/>
<rect x="695.1" y="124" class="st4" width="129.1" height="49"/>
<circle class="st3" cx="725.1" cy="149.5" r="17.8"/>
<circle class="st3" cx="794.2" cy="149.5" r="17.8"/>
<rect x="746.3" y="184.1" class="st2" width="26.7" height="15.6"/>
<rect x="704" y="195.3" class="st2" width="111.3" height="89.1"/>
<rect x="701.8" y="302.1" class="st2" width="115.8" height="11.1"/>
<polygon class="st2" points="720.7,340 720.7,353.3 720.7,373.4 720.7,384.5 720.7,391.2 740.7,391.2 740.7,384.5 740.7,373.4 
	740.7,353.3 740.7,340 740.7,324.4 720.7,324.4 "/>
<polygon class="st2" points="780.8,324.4 780.8,340 780.8,353.3 780.8,373.4 780.8,384.5 780.8,391.2 800.8,391.2 800.8,384.5 
	800.8,373.4 800.8,353.3 800.8,340 800.8,324.4 "/>
<path class="st2" d="M688.8,215.3v20.6c-5.5,1-10.6,3.4-14.8,7.1c-3.9,3.6-6.9,8-8.8,12.9c-2.5,6.3-3.9,13-4.3,19.7
	c-0.6,8.8-0.2,17.7,1.2,26.5h-22.3c-0.9-10.6-0.7-21.3,0.6-31.9c1.1-8.8,3.5-17.3,7.1-25.3c6.4-13.5,15.6-20.9,23.7-24.9
	C676.7,217.2,682.7,215.6,688.8,215.3z"/>
<rect x="720.7" y="324.4" class="st4" width="20" height="15.6"/>
<rect x="720.7" y="353.3" class="st4" width="20" height="20"/>
<rect x="720.7" y="384.5" class="st4" width="20" height="6.7"/>
<rect x="780.8" y="324.4" class="st4" width="20" height="15.6"/>
<rect x="780.8" y="353.3" class="st4" width="20" height="20"/>
<rect x="780.8" y="384.5" class="st4" width="20" height="6.7"/>
<path class="st4" d="M688.8,215.3v20.6c-5.5,1-10.6,3.4-14.8,7.1l-2.8-23C676.7,217.2,682.7,215.6,688.8,215.3z"/>
<path class="st4" d="M665.2,255.9c-2.5,6.3-3.9,13-4.3,19.7l-20.4-5.5c1.1-8.8,3.5-17.3,7.1-25.3L665.2,255.9z"/>
<path class="st2" d="M830.5,215.3v20.6c5.5,1,10.6,3.4,14.8,7.1c3.9,3.6,6.9,8,8.8,12.9c2.5,6.3,3.9,13,4.3,19.7
	c0.6,8.8,0.2,17.7-1.2,26.5h22.3c0.9-10.6,0.7-21.3-0.6-31.9c-1.1-8.8-3.5-17.3-7.1-25.3c-6.4-13.5-15.6-20.9-23.7-24.9
	C842.6,217.2,836.6,215.6,830.5,215.3z"/>
<path class="st4" d="M830.5,215.3v20.6c5.5,1,10.6,3.4,14.8,7.1l2.8-23C842.6,217.2,836.6,215.6,830.5,215.3z"/>
<path class="st4" d="M854.1,255.9c2.5,6.3,3.9,13,4.3,19.7l20.4-5.5c-1.1-8.8-3.5-17.3-7.1-25.3L854.1,255.9z"/>
<rect x="746.3" y="184.1" class="st3" width="26.7" height="1.8"/>
<path class="st3" d="M817.3,211.1v37.3c-1.3-1.4-2.1-3.3-2.1-5.3v-26.7C815.2,214.4,816,212.6,817.3,211.1z"/>
<path class="st3" d="M704.4,213.6v27.9c-0.1,1.8-0.9,3.4-2.1,4.7v-37.4C703.5,210.1,704.3,211.8,704.4,213.6z"/>
<rect x="709.6" y="284.3" class="st3" width="100.2" height="1.3"/>
<rect x="707.3" y="313.2" class="st3" width="49" height="1"/>
<rect x="760.8" y="313.2" class="st3" width="49" height="1"/>
<rect x="712.8" y="47" class="st2" width="7.7" height="65.9"/>
<rect x="800.7" y="47" class="st2" width="7.7" height="65.9"/>
<circle class="st3" cx="716.4" cy="47.5" r="8.7"/>
<circle class="st2" cx="716.4" cy="47" r="8.7"/>
<circle class="st3" cx="804.8" cy="47.5" r="8.7"/>
<circle class="st2" cx="804.8" cy="47" r="8.7"/>
<path class="st5" d="M624,428.9c-3.4,3.4-4.2,8.1-5.4,12.5c-3.5,12.4-11.6,23.9-23,32.4c-8.3,6.2-19.5,13-17.5,22.2
	c0.5,2.2,1.7,4.3,2,6.5c1.4,9.6-13.3,14.7-19,23.1c-4.2,6.3-3.1,14-1.8,21.2c1.5,8.7,3.4,18.1,10.6,24.5c1.9,1.7,4.2,3.2,5.6,5.3
	c3,4.7,0.4,10.8,3.1,15.6c3.7,6.4,15.2,6.7,21.9,2.4s9.8-11.4,12.8-18.1c8-18,17.9-36.1,34.5-49.2c16-12.6,39.2-22.3,42-40.6
	c1.2-7.8-1.8-16.4,2.7-23.4c2.2-3.3,5.7-5.7,8.2-8.8c7.3-9.3,1.9-22.8-8.8-29.4C675.9,415.1,637.9,415,624,428.9z"/>
<rect x="834" y="105.4" transform="matrix(0.9545 -0.2982 0.2982 0.9545 6.8523 264.7643)" class="st2" width="74" height="9"/>
<path class="st6" d="M936.4,428.9c0,0-38.7-7.7-49.1-18.1s-56.8-28.4-62-15.5s-69.7,56.8-25.8,64.5s103.3,10.3,116.2,5.2
	S936.4,428.9,936.4,428.9z"/>
<path class="st7" d="M799.6,455.1c43.9,7.7,103.3,10.3,116.2,5.2c9.8-3.9,16.7-22.8,19.4-31.6c0.8,0.2,1.3,0.3,1.3,0.3
	s-7.7,31-20.7,36.1s-72.3,2.6-116.2-5.2c-12.7-2.2-16.3-7.5-14.9-14.1C785.8,450.1,790.2,453.5,799.6,455.1z"/>
<linearGradient id="SVGID_1_" gradientUnits="userSpaceOnUse" x1="969.1517" y1="215.6893" x2="969.1517" y2="634.8837" gradientTransform="matrix(1 0 0 -1 -37.6617 706.634)">
	<stop  offset="0" style="stop-color:#808080;stop-opacity:0.25"/>
	<stop  offset="0.5351" style="stop-color:#808080;stop-opacity:0.12"/>
	<stop  offset="1" style="stop-color:#808080;stop-opacity:0.1"/>
</linearGradient>
<path class="st8" d="M1022.4,91.3c-0.7-1.7-1.8-3.2-3.2-4.4c-10.4-9.5-27.2-6.6-40.1-12.4c-3-1.3-6-3.2-9.2-2.7
	c-4.5,0.7-8.7,5.8-12.6,3.6l0.3,0.9c-0.1,0-0.2-0.1-0.3-0.1c1,2.9,1.9,5.9,2.9,8.8c1.1,3.4,2.3,6.9,4.4,9.7
	c-10.5,9.2-11.6,25.2-2.4,35.7c2.4,2.7,5.3,4.9,8.6,6.4c0.1,0.3,0.3,0.6,0.4,0.9c0.1,0.1,0.2,0.1,0.4,0.2c0.9,2,1.5,4,1.9,6.1
	c-3.3,0.5-9.2,4.2-14.9,9.6l-11.5-0.4c-7.4-0.2-14.6-2.7-20.6-7l-34.3-24.7c-2.4,0.2-4.7,1.3-6.6,2.9c-4.3-4.4-7.9-9.1-7.6-11.8
	c0,0-15.9-29.8-21.7-14.9s10.9,30.6,10.9,30.6l10.6,13.7c-0.4,2.4-0.7,4.8-0.8,7.3c13,14.9,58.7,28.4,58.7,28.4l7.1,0.3
	c0,0.1,0,0.2,0,0.3c-0.4,1.9-0.7,3.8-0.6,5.7c0,0.3,0,0.6,0,0.9c0,0.2,0,0.4,0,0.6c0.4,23.8,3.6,96.6,3.6,96.6
	c0.6-0.3,1.3-0.5,2-0.8l-0.5,6.5c0,0-30.4,4.3-52.9,12.8S871.1,319,871.1,319v87.8c-6.4,3.3-16.5,7.6-21.7,5.3
	c-5.6-2.5-8.7-0.4-9.3,1.8l0,0v0c-0.1,0.4-0.1,0.9,0,1.3l0,0c0,0.2,0.1,0.4,0.2,0.6l0,0c0.1,0.2,0.2,0.4,0.4,0.5
	c2.2,2.1,49.3,20.6,60.2,17.8c0.3-0.1,0.7-0.2,1-0.3c0.1,0,0.2-0.1,0.3-0.1c0.2-0.1,0.4-0.2,0.6-0.3c0.1-0.1,0.2-0.1,0.3-0.2
	c0.2-0.1,0.3-0.2,0.5-0.3c0.1-0.1,0.2-0.2,0.3-0.3c0.1-0.1,0.3-0.2,0.4-0.4c0.1-0.1,0.2-0.2,0.3-0.3c0.1-0.1,0.2-0.3,0.4-0.4
	c0.1-0.1,0.2-0.2,0.2-0.3c0.1-0.2,0.2-0.3,0.3-0.5c0.1-0.1,0.1-0.2,0.2-0.4c0.1-0.2,0.2-0.4,0.3-0.5c0.1-0.1,0.1-0.2,0.2-0.4
	c0.1-0.2,0.2-0.4,0.3-0.6c0-0.1,0.1-0.2,0.1-0.4c0.1-0.2,0.2-0.4,0.2-0.7c0-0.1,0.1-0.2,0.1-0.4c0.1-0.2,0.1-0.5,0.2-0.7
	c0-0.1,0-0.2,0.1-0.3c0.1-0.3,0.1-0.5,0.2-0.8c0-0.1,0-0.2,0-0.3c0-0.3,0.1-0.6,0.1-0.9c0-0.1,0-0.2,0-0.3c0-0.3,0.1-0.6,0.1-0.9
	c0-0.1,0-0.1,0-0.2c0-0.3,0-0.7,0.1-1c0,0,0-0.1,0-0.1c0-0.4,0-0.7,0-1.1l0-0.1c0-4.2-0.5-8.5-1.4-12.6l0,0l2.6-74.8
	c14.2,0.2,28.5-0.3,42.7-1.6l1.6,35.7c0,0,0,23.4,8,34.1c6.8,9.1,14.7,49.5,16.8,60.9c-2.9,5.6-8.5,12.5-18.3,12.3
	c0,0-18.4-1.6-17.3,3.5l0,0c0,0.1,0.1,0.3,0.1,0.4l0,0c0.1,0.1,0.1,0.3,0.2,0.4l0,0c0.1,0.1,0.2,0.3,0.3,0.4c0,0,0,0.1,0.1,0.1
	c0.1,0.1,0.2,0.3,0.4,0.5l0,0c0.1,0.1,0.3,0.3,0.4,0.4c0,0,0.1,0.1,0.1,0.1c0.2,0.2,0.3,0.3,0.5,0.5c9.4,8.5,64.5,9.9,64.5,9.9l0,0
	l0,0l0-0.1l0,0c0-0.1,0-0.1,0-0.2l0,0c0-2.5-0.4-15.4-3.7-25.2h0.8c0,0-8-71.8-14.5-80.3c0,0-1.7-37.8,2.2-61.6
	c0.2-0.1,0.5-0.2,0.7-0.3c18.3-6.8,19.6-23.6,17.7-36c3.5,1.1,5.5,1.9,5.5,1.9s-0.1-0.5-0.2-1.5c0.1,0,0.2,0.1,0.2,0.1
	s-0.3-2.3-0.9-5.8c-1.3-9.7-3.8-26.6-6.5-34.6c-0.4-1.8-0.9-3.3-1.2-4.4c-1.6-4.8-2.6-9.7-3.2-14.8c-0.7-6.5-1.1-13-1.1-19.6
	c0.1-8.7,0.7-17.5,2-26.1c1.1-7.6,2.1-16.1,2-22.1c0.1-2.1-0.1-4.2-0.4-6.2c-1-4.4-5.2-7.3-9.7-9.1c-0.3-0.1-0.6-0.2-0.9-0.3
	c0.1-1.7,0.2-3.6,0.4-5.6c1.1,0.7,2.4,1,3.7,0.7c1.9-0.4,3.3-2,4.5-3.5c6.4-7.9,13-16.1,15.5-25.9c1-4.4,1.4-8.9,1.4-13.3
	c0-0.2,0-0.5,0-0.7C1023.1,94.6,1022.9,93,1022.4,91.3z"/>
<path class="st9" d="M963.9,129.8c0,0,9.7,14.6,7.6,21.6c-2.1,7,22.9,2.8,22.9,2.8s0.7-27.1,5.6-33.4S963.9,129.8,963.9,129.8z"/>
<path class="st10" d="M899.6,139.2c0,0-20.2-16.7-19.5-22.9c0,0-15.3-29.2-20.9-14.6s10.4,29.9,10.4,29.9l19.5,25.7L899.6,139.2z"/>
<path class="st11" d="M879.1,400.9c0,0-18.8,11.8-26.4,8.3s-10.4,2.1-8.3,4.2s47.3,20.2,57.7,17.4s5.1-25.6,5.1-25.6L879.1,400.9z"
	/>
<path class="st11" d="M978.5,451.7c0,0-4.5,19.1-20.2,18.8c0,0-23.6-2.1-14.6,6.3s61.9,9.7,61.9,9.7s0-28.5-9.7-34.8
	S978.5,451.7,978.5,451.7z"/>
<path class="st12" d="M950,316.8l2.1,48.7c0,0,0,22.9,7.6,33.4s16.7,62.6,16.7,62.6h26.4c0,0-7.6-70.2-13.9-78.6
	c0,0-2.8-61.9,7-75.8L950,316.8z"/>
<path class="st3" d="M950,316.8l2.1,48.7c0,0,0,22.9,7.6,33.4s16.7,62.6,16.7,62.6h26.4c0,0-7.6-70.2-13.9-78.6c0,0-2.8-61.9,7-75.8
	L950,316.8z"/>
<path class="st12" d="M1004.9,273c0,0,16,38.2-13.2,49.4s-82,9.7-82,9.7l-2.8,80.6c0,0-32.7,4.2-33.4-6.3v-88.3
	c0,0,0.7-9.7,22.2-18.1s50.7-12.5,50.7-12.5l1.4-18.1L1004.9,273z"/>
<path class="st3" d="M979.3,147c5.6-0.6,11.2,0.2,16.3,2.3c4.3,1.8,8.4,4.6,9.3,8.9c1.1,5.1-0.1,16.6-1.5,26.4
	c-2.2,15.3-2.5,30.7-0.8,46.1c0.7,6.4,1.7,12,3.1,14.4c4.2,7.6,8.3,43.8,8.3,43.8s-45.9-17.4-68.8-7c0,0-3.1-71.3-3.5-94.5
	c-0.3-18,22.6-38.6,30.2-39.3C976.4,147.8,974.9,147.5,979.3,147z"/>
<path class="st13" d="M979.3,145.7c5.6-0.6,11.2,0.2,16.3,2.3c4.3,1.8,8.4,4.6,9.3,8.9c1.1,5.1-0.1,16.6-1.5,26.4
	c-2.2,15.3-2.5,30.7-0.8,46.1c0.5,4.9,1.6,9.7,3.1,14.4c3.1,9.4,8.3,43.8,8.3,43.8s-45.9-17.4-68.8-7c0,0-3.1-71.3-3.5-94.5
	c-0.3-18,22.6-38.6,30.2-39.3C976.4,146.4,974.9,146.1,979.3,145.7z"/>
<path class="st3" d="M991.7,184l-49.4-2.8c0,0-3.1-24.2,4-23.9l48.8,1.7C995.2,159,1005.6,171.5,991.7,184z"/>
<path class="st13" d="M991.7,182.6l-56.3-2.8c0,0-43.8-13.2-56.3-27.8c0,0,0.7-25.7,14.6-27.1l32.9,24.1c5.7,4.2,12.6,6.6,19.8,6.9
	l48.8,1.7C995.2,157.6,1005.6,170.1,991.7,182.6z"/>
<path class="st3" d="M994.2,132.9c0.8-6.6,3.8-8.8,5.9-11.5c4.9-6.3-36.1,9-36.1,9c2.1,3.3,4,6.7,5.5,10.2c3.3,1.5,6.8,2.3,10.4,2.3
	C986,143,989.8,136.5,994.2,132.9z"/>
<circle class="st10" cx="979.9" cy="117.3" r="25"/>
<path class="st3" d="M964.1,99.7c-2.7-2.9-3.9-6.8-5.2-10.6l-2.8-8.6c3.8,2.2,7.8-2.8,12.1-3.5c3.1-0.5,6,1.3,8.9,2.6
	c12.4,5.7,28.5,2.9,38.5,12.1c1.4,1.2,2.4,2.7,3.1,4.3c0.5,1.6,0.7,3.2,0.6,4.9c0.1,4.4-0.4,8.8-1.3,13.1
	c-2.4,9.6-8.7,17.6-14.9,25.4c-1.2,1.5-2.5,3-4.3,3.4c-3.6,0.8-6.3-3.1-7.7-6.5c-1.8-4.5-3.2-9.2-4-14c-0.2-2-0.8-4-1.7-5.9
	c-2.2-3.8-7.5-7.4-10.7-10.4C971.5,103.3,967.1,103,964.1,99.7z"/>
<path d="M964.1,99c-2.7-2.9-3.9-6.8-5.2-10.6l-2.8-8.6c3.8,2.2,7.8-2.8,12.1-3.5c3.1-0.5,6,1.3,8.9,2.6c12.4,5.7,28.5,2.9,38.5,12.1
	c1.4,1.2,2.4,2.7,3.1,4.3c0.5,1.6,0.7,3.2,0.6,4.9c0.1,4.4-0.4,8.8-1.3,13.1c-2.5,10-9.3,18.4-15.7,26.5c-0.6,0.8-1.3,1.4-2.2,1.9
	c-4.2,2.1-7.4-2.2-9-6c-1.8-4.5-3.2-9.2-4-14c-0.2-2-0.8-4-1.7-5.9c-2.2-3.8-7.5-7.4-10.7-10.4C971.5,102.6,967.1,102.3,964.1,99z"
	/>
<ellipse class="st9" cx="986.5" cy="120.1" rx="2.1" ry="4.5"/>
<path class="st3" d="M999,240.7c0,0-1.4,4.2-8.3,3.5s-27.1-2.1-27.1,0"/>
<path class="st14" d="M943.8,476c-1-0.7-1.7-1.7-2-2.9c-0.2,0.9,0.4,2.1,2,3.6c9,8.3,61.9,9.7,61.9,9.7s0-0.2,0-0.7
	C1005.3,485.7,952.8,484.3,943.8,476z"/>
<path class="st14" d="M902.1,429.4c-10.4,2.8-55.6-15.3-57.7-17.4c-0.3-0.3-0.5-0.6-0.6-1c-0.2,0.8,0,1.8,0.6,2.4
	c2.1,2.1,47.3,20.2,57.7,17.4c5.4-1.4,6.6-8.2,6.5-14.3C908.4,422.2,907,428.1,902.1,429.4z"/>
<linearGradient id="SVGID_2_" gradientUnits="userSpaceOnUse" x1="355.6686" y1="80.3293" x2="355.6686" y2="473.0217" gradientTransform="matrix(1 0 0 -1 -37.6617 706.634)">
	<stop  offset="0" style="stop-color:#808080;stop-opacity:0.25"/>
	<stop  offset="0.5351" style="stop-color:#808080;stop-opacity:0.12"/>
	<stop  offset="1" style="stop-color:#808080;stop-opacity:0.1"/>
</linearGradient>
<path class="st15" d="M505.5,482.7c-2.4-13.6-3.9-27.3-4.5-41v0c-1-23.2-16.5-43.3-38.7-50.2c-3.9-1.2-8.3-2.4-13.1-3.4
	c-42.1-8.9-54.9-1.1-56.4-0.1c-1.2-2.2-2.3-4.6-3.2-7c-0.1-0.2-0.1-0.5-0.2-0.7c8.3-8.9,13.4-20.3,14.4-32.5
	c7-7.1,11.1-15.7,11.1-25c0-8-3-15.4-8.4-21.9v-12.6c0-30.2-24.5-54.7-54.7-54.7l0,0h-4.4c-30.2,0-54.7,24.5-54.7,54.7l0,0v13.6
	c-4.8,5.9-7.5,13.3-7.6,20.9c0,9.1,3.9,17.5,10.7,24.5c0.9,12.6,6.2,24.5,15,33.5c0.3,2.1,0.6,4.3,0.9,6.6l-75.4,15.9
	c0,0-29.1,1.2-47.8,39.8c-15.8,32.7-47.4,116.7-56.7,141.7h0l0,0c-1.7,4.5-2.6,7.1-2.6,7.1s0.3-0.3,0.9-0.8
	c-0.6,1.6-0.9,2.4-0.9,2.4s0.5-0.5,1.3-1.2c-1.3,10.5-1.5,28.4,12.2,30.7c11.5,1.9,41.1,2.6,63.5,3v0h1.6
	c14.8,0.2,26.1,0.2,26.1,0.2v-0.2h240.6v-2.5c0-2.2-0.4-4.5-1.3-6.5c0.1-0.1,0.2-0.3,0.3-0.4c1.3,1.7,2.1,3.7,2.5,5.8
	c0,0.2-0.1,0.4-0.1,0.6c0,0,0-0.1,0.1-0.4c0.1,0.7,0,1.3-0.1,2c0,0,30.9-79.5,30.5-127C506.7,492.7,506.3,487.6,505.5,482.7z
	 M313.1,398.2c-0.4-2.3-0.7-4.6-0.8-6.9l0-0.1C312.6,393.5,312.8,395.8,313.1,398.2z M219.5,569.1v19l-11.9,2.5L219.5,569.1z"/>
<path class="st13" d="M348.5,241.3L348.5,241.3c30.2,0,54.7,24.5,54.7,54.7v23.3l0,0H293.8l0,0V296
	C293.8,265.8,318.3,241.3,348.5,241.3z"/>
<ellipse class="st13" cx="348.8" cy="327" rx="62.4" ry="42.8"/>
<path class="st16" d="M308.9,368.5c0,0,13,68.1,0,86.5c-13,18.4,39.8,25.6,39.8,25.6l54.7-19.9l7.7-49c0,0-33.3-18.7-26.4-56.6
	L308.9,368.5z"/>
<path class="st17" d="M470.3,598c0,0,3.4,14.9-15.3,17.6c-11.1,1.6-22.3,1.5-33.4-0.4l-4.1-37.5h43.6L470.3,598z"/>
<path class="st16" d="M139.3,578.9c0,0-8.3,33.6,10.5,36.7s87.6,3.1,87.6,3.1v-39.8l-31.2,6.7l-29.3-28.1L139.3,578.9z"/>
<path class="st3" d="M312.9,390.5L239.6,406c0,0-27.9,1.1-45.9,38.3s-57,143.1-57,143.1s33.3-33.7,72.3,2.3l26-47.1l-5.7,74.6h201.6
	v-35.2c0,0,42.1,22.6,39,35.2c0,0,36-92.8,28.3-134.9c-2.3-13-3.8-26.2-4.3-39.4v0c-0.9-22.3-15.8-41.7-37.2-48.3
	c-3.8-1.2-8-2.3-12.6-3.2c-43.2-9.2-54.3,0-54.3,0s-8.4,27.2-8.2,39.6c0.2,15.9-22.6,26.4-22.6,26.4s-33.7-8-35.2-14.5
	S310.2,398.1,312.9,390.5z"/>
<path class="st12" d="M312.9,388.9l-73.3,15.5c0,0-27.9,1.1-45.9,38.3s-57,143.1-57,143.1S170,552.1,209,588l26-47.1l-5.7,74.6
	h201.6v-35.2c0,0,42.1,22.6,39,35.2c0,0,36-92.8,28.3-134.9c-2.3-13-3.8-26.2-4.3-39.4v0c-0.9-22.3-15.8-41.7-37.2-48.3
	c-3.8-1.2-8-2.3-12.6-3.2c-43.2-9.2-54.3,0-54.3,0s-8.4,27.2-8.2,39.6c0.2,15.9-22.6,26.4-22.6,26.4s-33.7-8-35.2-14.5
	S310.2,396.6,312.9,388.9z"/>
<path class="st3" d="M387.8,385.7c-3.1-8.7-3.8-18.1-2-27.2L310,371.9c0,0,1.1,5.7,2.3,14.3c19.9,20.7,52.9,21.3,73.6,1.4
	C386.5,387,387.2,386.3,387.8,385.7L387.8,385.7z"/>
<path class="st16" d="M400.7,346.7c0,28.7-23.3,52-52,52c-28.2,0-51.3-22.5-52-50.8c0-0.4,0-0.8,0-1.3c0-19.9,11.3-38,29.2-46.8
	c1.6-0.8,3.2-1.4,4.8-2.1c8.6-3.1,17.8-4,26.8-2.5c0,0,0,0,0,0c23.7,4,41.6,23.8,43.1,47.8C400.6,344.4,400.7,345.5,400.7,346.7z"/>
<g class="st18">
	<path d="M330.5,299.1C330.6,299.1,330.6,299,330.5,299.1c-1.6,0.6-3.2,1.2-4.7,2c-17.9,8.7-29.2,26.9-29.2,46.8c0,0.4,0,0.8,0,1.3
		c1.6,0,3.2-0.4,4.7-1.1c12.7-5.9,20.3-24,23.3-36.7C325.7,306.8,326.7,301.7,330.5,299.1z"/>
	<path d="M370.4,300.5c-4.1-1.9-8.5-3.2-12.9-4c3.7,0.8,6.9,2.9,9.3,5.8c1.2,1.6,2.1,3.3,2.8,5.1c-14-6.1-30-5.8-43.8,0.9
		c3.3,7.2,13.4,11.1,20.2,13.7c7.4,2.9,14.9,5.5,22.5,7.8c-2.2-1.8-4.5-3.6-6.7-5.4c5,0.8,10.1,1.6,15.1,2.4c0.2-3-0.2-6-1.1-8.9
		c2.9,2.3,6.7,3.1,9.9,5.1c5.9,3.7,8.3,10.9,11.5,17c0.7,1.7,1.9,3.2,3.4,4.3C399.3,325.3,387.7,308.5,370.4,300.5z"/>
</g>
<path class="st19" d="M330.5,297.9C330.6,297.9,330.6,297.9,330.5,297.9c-1.6,0.6-3.2,1.2-4.7,2c-17.9,8.7-29.2,26.9-29.2,46.8
	c0,0.4,0,0.8,0,1.3c1.6,0,3.2-0.4,4.7-1.1c12.7-5.9,20.3-24,23.3-36.7C325.7,305.6,326.7,300.5,330.5,297.9z"/>
<path class="st19" d="M370.4,299.4c-4.1-1.9-8.5-3.2-12.9-4c3.7,0.8,6.9,2.9,9.3,5.8c1.2,1.6,2.1,3.3,2.8,5.1
	c-14-6.1-30-5.8-43.8,0.9c3.3,7.2,13.4,11.1,20.2,13.7c7.4,2.9,14.9,5.5,22.5,7.8c-2.2-1.8-4.5-3.6-6.7-5.4c5,0.8,10.1,1.6,15.1,2.4
	c0.2-3-0.2-6-1.1-8.9c2.9,2.3,6.7,3.1,9.9,5.1c5.9,3.7,8.3,10.9,11.5,17c0.7,1.7,1.9,3.2,3.4,4.3
	C399.3,324.2,387.7,307.3,370.4,299.4z"/>
<path class="st3" d="M290.7,338.1c0,0,53.6-66.6,115.5,0l-5.4-14.9c0,0-29.1-42.5-49.7-33.3s-40.9,15.7-40.9,15.7L290.7,338.1z"/>
<path class="st13" d="M290.7,336.9c0,0,53.6-66.6,115.5,0l-5.4-14.9c0,0-29.1-42.5-49.7-33.3s-40.9,15.7-40.9,15.7L290.7,336.9z"/>
<path class="st3" d="M246.7,480.4c0,0-11.5,30.6,4.6,58.1c16.1,27.5-14.2,39-14.2,39"/>
<path class="st3" d="M432.6,452.8c0,0,19.9,25.2,6.9,47.8c-13,22.6-12.2,76.9-12.2,76.9"/>
<path class="st11" d="M229.1,600.1h221.1c10.1,0,18.4,8.2,18.4,18.4l0,0l0,0H210.7l0,0l0,0C210.7,608.3,219,600.1,229.1,600.1
	L229.1,600.1z"/>
<path class="st11" d="M262.4,473.9H417c21.5,0,39,17.5,39,39v91.5l0,0H223.4l0,0v-91.5C223.4,491.3,240.8,473.9,262.4,473.9
	C262.4,473.9,262.4,473.9,262.4,473.9z"/>
<circle class="st20" cx="339.5" cy="544.8" r="13.8"/>
<path class="st21" d="M293.8,306.9c0,0,52.6-52.6,109.4-1"/>
<rect x="411.2" y="303.5" class="st22" width="5.3" height="30"/>
<path class="st23" d="M404.1,322.9L404.1,322.9c10.1,0,18.2,8.2,18.2,18.2v0v1.2c0,10.1-8.2,18.2-18.2,18.2h0l0,0l0,0V322.9
	L404.1,322.9z"/>
<path class="st22" d="M404.7,321.1L404.7,321.1c2.3,0,4.1,1.8,4.1,4.1v32.9c0,2.3-1.8,4.1-4.1,4.1l0,0c-2.3,0-4.1-1.8-4.1-4.1v-32.9
	C400.6,323,402.5,321.1,404.7,321.1z"/>
<rect x="279.9" y="304.1" class="st22" width="5.3" height="30"/>
<path class="st23" d="M292.3,361.1L292.3,361.1c-10.1,0-18.2-8.2-18.2-18.2v0v-1.2c0-10.1,8.2-18.2,18.2-18.2h0l0,0l0,0V361.1
	L292.3,361.1z"/>
<path class="st22" d="M291.7,362.8L291.7,362.8c-2.3,0-4.1-1.8-4.1-4.1v-32.9c0-2.3,1.8-4.1,4.1-4.1l0,0c2.3,0,4.1,1.8,4.1,4.1v32.9
	C295.8,361,293.9,362.8,291.7,362.8z"/>
<path class="st23" d="M410.6,271.5c-7.2-14.9-22.7-32.9-56.4-34.3l0,0l-0.4,0l0,0l0,0l-11.9,0.6l0,0.1c-33.4,1.5-48.9,19.5-56,34.3
	c-4.7,10.1-7.3,21-7.4,32.1l4.1-0.1l4.1-0.1c0.2-9.9,2.5-19.7,6.7-28.6c9.1-18.6,25.7-28.5,49.6-29.4l0,0l10.5-0.6l0,0
	c23.8,0.9,40.5,10.8,49.6,29.4c4.2,9,6.5,18.7,6.7,28.6l4.1,0.1l4.1,0.1C417.8,292.5,415.3,281.5,410.6,271.5z"/>
<rect x="37.6" y="618.7" class="st24" width="560.8" height="150.6"/>
<rect x="37.6" y="628.8" class="st3" width="560.8" height="19.5"/>
<rect y="616.5" class="st24" width="636" height="19.5"/>
<path class="st1" d="M435.5,567.9c0,0,24,44,84,32s31,111,31,111s-9.8,58.7-2.9,58.3"/>
</svg>
